<?xml version="1.0" encoding="UTF-8"?>
<svg version="1.1" xmlns="http://www.w3.org/2000/svg" width="500" height="500">
<path d="M0 0 C9.27734375 -0.09765625 9.27734375 -0.09765625 12 0 C13.81115956 1.81115956 13.38199448 4.61278227 13.5625 7.0625 C13.64628906 8.16722656 13.73007812 9.27195313 13.81640625 10.41015625 C13.87699219 11.26480469 13.93757812 12.11945313 14 13 C15.98 13 17.96 13 20 13 C20.33 14.65 20.66 16.3 21 18 C21.49628906 17.65066406 21.99257813 17.30132812 22.50390625 16.94140625 C28.53535567 12.90136518 33.27691914 11.34734299 40.5625 12.6875 C46.01155166 14.06136652 50.24028982 16.82254425 54 21 C54.20625 20.236875 54.4125 19.47375 54.625 18.6875 C56.47865701 15.06444312 58.25788014 14.50730323 62 13 C65.47265625 12.63671875 65.47265625 12.63671875 69.0625 12.6875 C70.24972656 12.69136719 71.43695313 12.69523438 72.66015625 12.69921875 C75.85604527 12.98703566 78.11988582 13.63344299 81 15 C79.94124926 18.40312738 78.99097846 21.01353231 77 24 C73.37 23.34 69.74 22.68 66 22 C66 22.99 66 23.98 66 25 C66.66386719 25.15855469 67.32773437 25.31710938 68.01171875 25.48046875 C73.56220616 26.94709389 77.46838185 28.17345519 81 33 C81 34.32 81 35.64 81 37 C81.515625 36.505 82.03125 36.01 82.5625 35.5 C85.96381375 33.40688385 88.07072743 33.44852315 92 34 C95.38677089 36.45000447 96.78698584 37.86392446 97.5625 42 C96.84202557 45.8425303 95.99097304 47.45767292 93 50 C88.05135952 50.78549849 88.05135952 50.78549849 85 50 C82 47.5 82 47.5 80 45 C79.401875 45.639375 78.80375 46.27875 78.1875 46.9375 C74.37956139 50.52784211 70.72498124 50.19020794 65.6875 50.25 C63.74423828 50.28867187 63.74423828 50.28867187 61.76171875 50.328125 C57.78779021 49.98148949 55.44903329 48.91782529 52 47 C49.58746133 47.2193217 47.99933838 48.00031017 45.80859375 49.02734375 C39.95142407 51.05576552 32.38253145 51.23098455 26.53125 49.1015625 C24.625 48 24.625 48 22 46 C21.67 46.99 21.34 47.98 21 49 C16.82437724 51.08781138 11.54816058 50.44327867 7 50 C3.25638594 47.90357613 1.63425379 45.88904257 0 42 C-0.22705078 39.89355469 -0.22705078 39.89355469 -0.1953125 37.671875 C-0.18564453 36.47304687 -0.18564453 36.47304687 -0.17578125 35.25 C-0.15064453 34.0125 -0.15064453 34.0125 -0.125 32.75 C-0.11597656 31.90953125 -0.10695313 31.0690625 -0.09765625 30.203125 C-0.07415817 28.13529396 -0.03828908 26.06761005 0 24 C-0.33 24.33 -0.66 24.66 -1 25 C-0.96753204 27.0631913 -0.8986931 29.12585424 -0.8125 31.1875 C-0.77628276 36.70459357 -1.06481472 39.852102 -5 44 C-11.68439758 50.01595783 -17.35495981 50.59897386 -26.0546875 50.39453125 C-32.30807481 49.76919252 -35.69014956 47.30985044 -40 43 C-40.33 44.98 -40.66 46.96 -41 49 C-45.29 49 -49.58 49 -54 49 C-54.04898438 47.36289062 -54.09796875 45.72578125 -54.1484375 44.0390625 C-54.22345639 41.901024 -54.2990046 39.76300402 -54.375 37.625 C-54.4059375 36.54476562 -54.436875 35.46453125 -54.46875 34.3515625 C-54.50742188 33.3203125 -54.54609375 32.2890625 -54.5859375 31.2265625 C-54.6173584 30.27346191 -54.6487793 29.32036133 -54.68115234 28.33837891 C-54.78555796 25.81104824 -54.78555796 25.81104824 -57 24 C-60.56592619 24.16417032 -60.56592619 24.16417032 -64 25 C-67.59010987 32.18021974 -65.63547957 40.98055056 -66 49 C-82.17 49 -98.34 49 -115 49 C-115 48.34 -115 47.68 -115 47 C-115.845625 47.48726563 -116.69125 47.97453125 -117.5625 48.4765625 C-121.34243401 50.15176053 -123.88898606 50.40204614 -128 50.375 C-129.175625 50.38273437 -130.35125 50.39046875 -131.5625 50.3984375 C-138.03128271 49.64864678 -141.81538073 46.7483468 -145.73828125 41.81640625 C-149.05934329 37.03531075 -149.35214269 32.76870163 -148.53515625 27.171875 C-147.28615788 22.10294731 -143.89086453 18.20819179 -139.82421875 15.04296875 C-133.99067513 11.70773075 -127.43095906 11.44114153 -121.05078125 13.15234375 C-117.73687263 14.52209265 -115.55782816 16.50775717 -113 19 C-112.67 17.35 -112.34 15.7 -112 14 C-105.62828282 13.80668821 -99.25626754 13.62921328 -92.88378906 13.46289062 C-90.71474153 13.40439069 -88.54578964 13.34222783 -86.37695312 13.27636719 C-83.26450002 13.18248149 -80.1519438 13.10165376 -77.0390625 13.0234375 C-75.57806625 12.97514297 -75.57806625 12.97514297 -74.08755493 12.9258728 C-73.18677216 12.90570099 -72.28598938 12.88552917 -71.35791016 12.86474609 C-70.16544174 12.83143692 -70.16544174 12.83143692 -68.94888306 12.79745483 C-67 13 -67 13 -65 15 C-64.01 14.34 -63.02 13.68 -62 13 C-56.96207325 11.59406695 -52.78350293 12.04095108 -48 14 C-45.10205171 15.89023841 -42.57529753 17.84940495 -41 21 C-40.55269531 20.59007812 -40.10539062 20.18015625 -39.64453125 19.7578125 C-33.88390887 14.62361174 -28.90978234 12.12757713 -21 12 C-15.03190784 12.63727086 -10.73756074 14.35572251 -6 18 C-5.01 15.525 -5.01 15.525 -4 13 C-2.02 13.495 -2.02 13.495 0 14 C0 9.38 0 4.76 0 0 Z M-80 19 C-81.01794267 20.34616405 -81.98944411 21.72748942 -82.94140625 23.12109375 C-83.52470703 23.97380859 -84.10800781 24.82652344 -84.70898438 25.70507812 C-85.32064453 26.60677734 -85.93230469 27.50847656 -86.5625 28.4375 C-87.17802734 29.33533203 -87.79355469 30.23316406 -88.42773438 31.15820312 C-91.42878393 34.81016852 -91.42878393 34.81016852 -93 39 C-88.38 39 -83.76 39 -79 39 C-79 32.4 -79 25.8 -79 19 C-79.33 19 -79.66 19 -80 19 Z M-134 23 C-134.33 23.99 -134.66 24.98 -135 26 C-131.04 26 -127.08 26 -123 26 C-124.48925419 21.88036585 -124.48925419 21.88036585 -127.375 21.125 C-130.31829582 20.98484306 -131.61493049 21.29637892 -134 23 Z M31.625 22.3125 C29.7687861 23.84965539 29.7687861 23.84965539 30 26 C33.96 26 37.92 26 42 26 C41.34 24.68 40.68 23.36 40 22 C36.53524219 20.87018767 34.8583921 20.52562542 31.625 22.3125 Z M-111 24 C-110.67 27.3 -110.34 30.6 -110 34 C-118.25 34 -126.5 34 -135 34 C-134.45015231 37.90596314 -134.45015231 37.90596314 -132.375 39.3125 C-128.16140403 40.53222515 -124.32342397 39.64557267 -120.4375 37.75 C-118 37 -118 37 -114.8125 38.25 C-112 40 -112 40 -110 42 C-108.72474223 40.12800641 -107.45499289 38.25225974 -106.1875 36.375 C-105.47980469 35.33085937 -104.77210938 34.28671875 -104.04296875 33.2109375 C-102.13652196 30.2145718 -100.52506158 27.20407259 -99 24 C-102.96 24 -106.92 24 -111 24 Z M-27.3125 25.6875 C-29.22678628 28.3107812 -29.92078375 29.7521338 -30 33 C-28.24886475 36.71261227 -28.24886475 36.71261227 -25 39 C-21.76119319 39.28163537 -19.63329909 39.30809145 -16.6875 37.875 C-14.33709416 35.26343795 -14.06978518 33.48925922 -14 30 C-15.73344875 26.27156036 -15.73344875 26.27156036 -19 24 C-22.59870962 23.60883591 -24.34439619 23.52158641 -27.3125 25.6875 Z M13 24 C12.91921359 26.12438339 12.86090859 28.2496323 12.8125 30.375 C12.77769531 31.55835938 12.74289062 32.74171875 12.70703125 33.9609375 C12.80371094 34.96382812 12.90039062 35.96671875 13 37 C14.485 37.99 14.485 37.99 16 39 C17.44207941 36.11584117 17.09394887 33.58278472 17.0625 30.375 C17.05347656 29.18648437 17.04445313 27.99796875 17.03515625 26.7734375 C17.02355469 25.85820312 17.01195312 24.94296875 17 24 C15.68 24 14.36 24 13 24 Z M55 31 C55 31.99 55 32.98 55 34 C46.42 34 37.84 34 29 34 C31.32251426 38.88495525 31.32251426 38.88495525 34 40 C38.34751696 40.44497134 38.34751696 40.44497134 42 38.375 C42.66 37.92125 43.32 37.4675 44 37 C47 37.75 47 37.75 50 39 C51.32911682 39.34976758 52.66082739 39.69096017 54 40 C54.33 39.01 54.66 38.02 55 37 C55.60328125 37.30035156 56.2065625 37.60070312 56.828125 37.91015625 C57.62734375 38.29042969 58.4265625 38.67070312 59.25 39.0625 C60.03890625 39.44535156 60.8278125 39.82820313 61.640625 40.22265625 C64.25993522 41.08564091 65.44855176 40.93045933 68 40 C66.94768703 37.03323813 66.18219261 36.10395374 63.3984375 34.515625 C62.40070313 34.09796875 61.40296875 33.6803125 60.375 33.25 C59.37210938 32.82203125 58.36921875 32.3940625 57.3359375 31.953125 C56.56507813 31.63859375 55.79421875 31.3240625 55 31 Z " fill="#121212" transform="translate(292,214)"/>
<path d="M0 0 C0.78375 0.78375 1.5675 1.5675 2.375 2.375 C2.705 0.725 3.035 -0.925 3.375 -2.625 C3.705 -2.625 4.035 -2.625 4.375 -2.625 C4.375 0.345 4.375 3.315 4.375 6.375 C8.665 6.375 12.955 6.375 17.375 6.375 C17.045 7.035 16.715 7.695 16.375 8.375 C12.745 8.375 9.115 8.375 5.375 8.375 C5.375 11.345 5.375 14.315 5.375 17.375 C-2.875 17.375 -11.125 17.375 -19.625 17.375 C-19.295 18.695 -18.965 20.015 -18.625 21.375 C-12.67539933 22.45085372 -9.85307357 22.62488357 -4.625 19.375 C-0.08764481 20.20839177 2.38133063 21.92076612 5.375 25.375 C1.08660263 30.04178538 -2.63434289 33.02835565 -9.0625 33.7734375 C-10.238125 33.76570313 -11.41375 33.75796875 -12.625 33.75 C-13.800625 33.75773437 -14.97625 33.76546875 -16.1875 33.7734375 C-22.65628271 33.02364678 -26.44038073 30.1233468 -30.36328125 25.19140625 C-33.68434329 20.41031075 -33.97714269 16.14370163 -33.16015625 10.546875 C-31.89934168 5.42999251 -28.48613243 1.59875293 -24.37890625 -1.58203125 C-16.83574207 -6.06760995 -6.80114881 -5.61694878 0 0 Z M-18.625 6.375 C-18.955 7.365 -19.285 8.355 -19.625 9.375 C-15.665 9.375 -11.705 9.375 -7.625 9.375 C-9.11425419 5.25536585 -9.11425419 5.25536585 -12 4.5 C-14.94329582 4.35984306 -16.23993049 4.67137892 -18.625 6.375 Z " fill="#1E1E1E" transform="translate(176.625,230.625)"/>
<path d="M0 0 C1.18722656 0.00386719 2.37445313 0.00773438 3.59765625 0.01171875 C6.79354527 0.29953566 9.05738582 0.94594299 11.9375 2.3125 C10.87874926 5.71562738 9.92847846 8.32603231 7.9375 11.3125 C4.3075 10.6525 0.6775 9.9925 -3.0625 9.3125 C-3.0625 10.3025 -3.0625 11.2925 -3.0625 12.3125 C-2.06669922 12.55033203 -2.06669922 12.55033203 -1.05078125 12.79296875 C4.49970616 14.25959389 8.40588185 15.48595519 11.9375 20.3125 C11.9375 21.6325 11.9375 22.9525 11.9375 24.3125 C12.453125 23.8175 12.96875 23.3225 13.5 22.8125 C16.90131375 20.71938385 19.00822743 20.76102315 22.9375 21.3125 C26.32427089 23.76250447 27.72448584 25.17642446 28.5 29.3125 C27.77952557 33.1550303 26.92847304 34.77017292 23.9375 37.3125 C18.98885952 38.09799849 18.98885952 38.09799849 15.9375 37.3125 C12.9375 34.8125 12.9375 34.8125 10.9375 32.3125 C10.339375 32.951875 9.74125 33.59125 9.125 34.25 C4.59424628 38.5218535 -1.40712754 37.69889841 -7.296875 37.61328125 C-12.19174234 37.22230118 -14.99227166 35.9706083 -19.0625 33.3125 C-17.4125 30.3425 -15.7625 27.3725 -14.0625 24.3125 C-13.29164063 24.5290625 -12.52078125 24.745625 -11.7265625 24.96875 C-10.72367187 25.2471875 -9.72078125 25.525625 -8.6875 25.8125 C-7.68976563 26.0909375 -6.69203125 26.369375 -5.6640625 26.65625 C-3.18646724 27.39403015 -3.18646724 27.39403015 -1.0625 27.3125 C-3.28573773 23.97764341 -4.6416441 23.30700857 -8.1875 21.625 C-9.09757812 21.18800781 -10.00765625 20.75101563 -10.9453125 20.30078125 C-11.99332031 19.81158203 -11.99332031 19.81158203 -13.0625 19.3125 C-13.3925 19.9725 -13.7225 20.6325 -14.0625 21.3125 C-22.6425 21.3125 -31.2225 21.3125 -40.0625 21.3125 C-40.0625 20.9825 -40.0625 20.6525 -40.0625 20.3125 C-31.8125 20.3125 -23.5625 20.3125 -15.0625 20.3125 C-15.7225 16.3525 -16.3825 12.3925 -17.0625 8.3125 C-16.4025 8.3125 -15.7425 8.3125 -15.0625 8.3125 C-14.753125 7.1678125 -14.753125 7.1678125 -14.4375 6 C-11.51405495 0.28599376 -5.89882964 -0.08344373 0 0 Z " fill="#212121" transform="translate(361.0625,226.6875)"/>
<path d="M0 0 C3.23861303 1.44424635 5.61969163 3.25772247 8.25 5.625 C8.95640625 6.25664062 9.6628125 6.88828125 10.390625 7.5390625 C10.92171875 8.02117187 11.4528125 8.50328125 12 9 C7.7074854 15.135856 2.86426798 20.35378637 -2.5 25.5625 C-3.97120113 26.99879566 -5.43999096 28.43756575 -6.90625 29.87890625 C-7.6072583 30.56549316 -8.3082666 31.25208008 -9.03051758 31.95947266 C-10.89119634 33.88727148 -12.5209372 35.88607668 -14.16796875 37.99609375 C-16.22854567 40.45688864 -16.70520265 40.92834516 -19.95703125 41.71875 C-20.89933594 41.6465625 -21.84164062 41.574375 -22.8125 41.5 C-23.76769531 41.4484375 -24.72289063 41.396875 -25.70703125 41.34375 C-28 41 -28 41 -29 40 C-29.7316012 36.52144337 -29.7628689 33.47474478 -29 30 C-26.42453229 26.51655144 -23.23782622 23.85598242 -20 21 C-18.89176442 19.77202402 -17.80684527 18.52247365 -16.75 17.25 C-11.53702075 11.15787223 -5.70389049 5.62669498 0 0 Z " fill="#171717" transform="translate(133,224)"/>
<path d="M0 0 C2.66803551 2.16777885 2.93406086 3.55726577 3.4375 6.9375 C2.87499856 10.87501007 2.03727005 12.41832046 -1 15 C-5.05269327 15.95504042 -8.01283664 15.60192888 -11.5625 13.4375 C-13 11 -13 11 -13 7.5 C-10.86489985 0.02714947 -7.19401383 -0.91352557 0 0 Z " fill="#161616" transform="translate(386,249)"/>
<path d="M0 0 C4.4428165 1.00973102 7.15384407 3.97058696 9.75 7.625 C9.9375 10.3125 9.9375 10.3125 8.75 12.625 C6.6875 14.9375 6.6875 14.9375 4.75 16.625 C1.51138697 15.18075365 -0.86969163 13.36727753 -3.5 11 C-4.20640625 10.36835938 -4.9128125 9.73671875 -5.640625 9.0859375 C-6.17171875 8.60382813 -6.7028125 8.12171875 -7.25 7.625 C-4.10086905 1.13913029 -4.10086905 1.13913029 0 0 Z " fill="#292929" transform="translate(143.25,214.375)"/>
</svg>
