<?xml version="1.0" encoding="UTF-8"?>
<svg version="1.1" xmlns="http://www.w3.org/2000/svg" width="500" height="500">
<path d="M0 0 C1.50046875 0.00386719 1.50046875 0.00386719 3.03125 0.0078125 C4.0315625 0.00523437 5.031875 0.00265625 6.0625 0 C8.53125 0.1328125 8.53125 0.1328125 9.53125 1.1328125 C9.60383946 3.31920703 9.61498783 5.50781639 9.59375 7.6953125 C9.58472656 8.89285156 9.57570313 10.09039062 9.56640625 11.32421875 C9.54900391 12.71447266 9.54900391 12.71447266 9.53125 14.1328125 C11.84125 14.1328125 14.15125 14.1328125 16.53125 14.1328125 C16.86125 15.4528125 17.19125 16.7728125 17.53125 18.1328125 C17.95792969 17.771875 18.38460937 17.4109375 18.82421875 17.0390625 C25.06336303 12.4079451 30.94902483 12.10102406 38.53125 13.1328125 C43.47951607 14.6727942 47.1451248 17.1823331 50.53125 21.1328125 C50.7375 20.3696875 50.94375 19.6065625 51.15625 18.8203125 C53.00990701 15.19725562 54.78913014 14.64011573 58.53125 13.1328125 C62.00390625 12.76953125 62.00390625 12.76953125 65.59375 12.8203125 C66.78097656 12.82417969 67.96820313 12.82804688 69.19140625 12.83203125 C72.38729527 13.11984816 74.65113582 13.76625549 77.53125 15.1328125 C76.47249926 18.53593988 75.52222846 21.14634481 73.53125 24.1328125 C69.90125 23.4728125 66.27125 22.8128125 62.53125 22.1328125 C62.53125 23.1228125 62.53125 24.1128125 62.53125 25.1328125 C63.19511719 25.29136719 63.85898437 25.44992188 64.54296875 25.61328125 C70.09345616 27.07990639 73.99963185 28.30626769 77.53125 33.1328125 C77.53125 34.4528125 77.53125 35.7728125 77.53125 37.1328125 C78.2325 36.6378125 78.93375 36.1428125 79.65625 35.6328125 C83.00446887 33.8859157 84.8070663 33.57814684 88.53125 34.1328125 C91.75108624 36.30837753 92.44182891 37.82542752 93.53125 41.5703125 C93.53125 45.1328125 93.53125 45.1328125 92.09375 48.0703125 C89.19450382 50.40385211 87.22127175 50.8490754 83.50390625 50.640625 C80.24040936 49.80051689 78.57507557 47.68759446 76.53125 45.1328125 C75.7475 45.7721875 74.96375 46.4115625 74.15625 47.0703125 C69.99215817 50.34209894 67.57477277 50.32053576 62.28125 50.3828125 C60.97671875 50.40859375 59.6721875 50.434375 58.328125 50.4609375 C54.32329853 50.11484139 52.01429212 49.04546569 48.53125 47.1328125 C45.45167753 46.89703161 45.45167753 46.89703161 42.77734375 48.60546875 C37.23810658 51.21177649 31.52849268 50.79299565 25.53125 50.1328125 C22.69304968 49.09378829 20.95679207 47.98084455 18.53125 46.1328125 C18.20125 47.1228125 17.87125 48.1128125 17.53125 49.1328125 C13.35562724 51.22062388 8.07941058 50.57609117 3.53125 50.1328125 C-0.21236406 48.03638863 -1.83449621 46.02185507 -3.46875 42.1328125 C-3.69580078 40.02636719 -3.69580078 40.02636719 -3.6640625 37.8046875 C-3.65439453 36.60585937 -3.65439453 36.60585937 -3.64453125 35.3828125 C-3.61939453 34.1453125 -3.61939453 34.1453125 -3.59375 32.8828125 C-3.58472656 32.04234375 -3.57570313 31.201875 -3.56640625 30.3359375 C-3.54290817 28.26810646 -3.50703908 26.20042255 -3.46875 24.1328125 C-3.79875 24.4628125 -4.12875 24.7928125 -4.46875 25.1328125 C-4.43628204 27.1960038 -4.3674431 29.25866674 -4.28125 31.3203125 C-4.24503276 36.83740607 -4.53356472 39.9849145 -8.46875 44.1328125 C-14.8512194 50.02432271 -20.55014054 50.57228255 -29.0078125 50.45703125 C-35.09271494 49.88700089 -39.26024345 47.57018043 -43.46875 43.1328125 C-43.79875 45.1128125 -44.12875 47.0928125 -44.46875 49.1328125 C-48.75875 49.1328125 -53.04875 49.1328125 -57.46875 49.1328125 C-57.51773438 47.49570312 -57.56671875 45.85859375 -57.6171875 44.171875 C-57.69220639 42.0338365 -57.7677546 39.89581652 -57.84375 37.7578125 C-57.8746875 36.67757812 -57.905625 35.59734375 -57.9375 34.484375 C-57.97617188 33.453125 -58.01484375 32.421875 -58.0546875 31.359375 C-58.0861084 30.40627441 -58.1175293 29.45317383 -58.14990234 28.47119141 C-58.25430796 25.94386074 -58.25430796 25.94386074 -60.46875 24.1328125 C-64.81069936 24.22976366 -64.81069936 24.22976366 -68.46875 26.1328125 C-68.79875 33.7228125 -69.12875 41.3128125 -69.46875 49.1328125 C-85.63875 49.1328125 -101.80875 49.1328125 -118.46875 49.1328125 C-118.46875 48.4728125 -118.46875 47.8128125 -118.46875 47.1328125 C-119.314375 47.62007813 -120.16 48.10734375 -121.03125 48.609375 C-124.81118401 50.28457303 -127.35773606 50.53485864 -131.46875 50.5078125 C-132.644375 50.51554687 -133.82 50.52328125 -135.03125 50.53125 C-141.50003271 49.78145928 -145.28413073 46.8811593 -149.20703125 41.94921875 C-152.52809329 37.16812325 -152.82089269 32.90151413 -152.00390625 27.3046875 C-150.51720452 21.27106587 -146.23647284 17.6832444 -141.46875 14.1328125 C-135.85553864 12.26174205 -128.75121175 11.97655302 -123.12890625 13.95703125 C-120.59211962 15.39972809 -118.52904697 17.07251553 -116.46875 19.1328125 C-116.13875 17.4828125 -115.80875 15.8328125 -115.46875 14.1328125 C-99.13541667 14.1328125 -82.80208333 14.1328125 -66.46875 14.1328125 C-65.80875 13.8028125 -65.14875 13.4728125 -64.46875 13.1328125 C-57.41216232 12.47284387 -52.27123319 13.09082595 -46.59375 17.6328125 C-45.46875 19.1328125 -45.46875 19.1328125 -45.46875 22.1328125 C-44.80875 22.1328125 -44.14875 22.1328125 -43.46875 22.1328125 C-43.2625 21.5553125 -43.05625 20.9778125 -42.84375 20.3828125 C-40.44910626 16.46430456 -36.74123678 14.55697476 -32.46875 13.1328125 C-24.09593663 12.48383967 -17.6118471 12.5108085 -10.46875 17.1328125 C-10.13875 17.4628125 -9.80875 17.7928125 -9.46875 18.1328125 C-9.13875 16.8128125 -8.80875 15.4928125 -8.46875 14.1328125 C-6.81875 14.1328125 -5.16875 14.1328125 -3.46875 14.1328125 C-3.48035156 13.20597656 -3.49195313 12.27914062 -3.50390625 11.32421875 C-3.51292969 10.12667969 -3.52195312 8.92914063 -3.53125 7.6953125 C-3.54285156 6.50035156 -3.55445313 5.30539063 -3.56640625 4.07421875 C-3.43727936 0.18491693 -3.43727936 0.18491693 0 0 Z M-83.46875 19.1328125 C-85.59151941 21.81090738 -87.50620748 24.6484633 -89.46875 27.4453125 C-90.02820313 28.23099609 -90.58765625 29.01667969 -91.1640625 29.82617188 C-91.69773437 30.58349609 -92.23140625 31.34082031 -92.78125 32.12109375 C-93.51794922 33.16583862 -93.51794922 33.16583862 -94.26953125 34.23168945 C-95.63147214 36.22318101 -95.63147214 36.22318101 -96.46875 39.1328125 C-91.84875 39.1328125 -87.22875 39.1328125 -82.46875 39.1328125 C-82.46875 32.5328125 -82.46875 25.9328125 -82.46875 19.1328125 C-82.79875 19.1328125 -83.12875 19.1328125 -83.46875 19.1328125 Z M-137.46875 23.1328125 C-137.79875 24.1228125 -138.12875 25.1128125 -138.46875 26.1328125 C-134.50875 26.1328125 -130.54875 26.1328125 -126.46875 26.1328125 C-127.95800419 22.01317835 -127.95800419 22.01317835 -130.84375 21.2578125 C-133.78704582 21.11765556 -135.08368049 21.42919142 -137.46875 23.1328125 Z M28.15625 22.4453125 C26.3000361 23.98246789 26.3000361 23.98246789 26.53125 26.1328125 C30.49125 26.1328125 34.45125 26.1328125 38.53125 26.1328125 C37.87125 24.8128125 37.21125 23.4928125 36.53125 22.1328125 C33.06649219 21.00300017 31.3896421 20.65843792 28.15625 22.4453125 Z M-114.46875 24.1328125 C-114.13875 27.4328125 -113.80875 30.7328125 -113.46875 34.1328125 C-121.71875 34.1328125 -129.96875 34.1328125 -138.46875 34.1328125 C-137.93605289 38.06333738 -137.93605289 38.06333738 -135.78125 39.3828125 C-132.81736838 40.3440714 -130.56971822 40.45583002 -127.46875 40.1328125 C-126.80875 39.5965625 -126.14875 39.0603125 -125.46875 38.5078125 C-124.47875 37.8271875 -124.47875 37.8271875 -123.46875 37.1328125 C-119.37955581 37.98472796 -116.71474803 39.60037438 -113.46875 42.1328125 C-111.62787001 39.51303019 -109.79736565 36.88616669 -107.96875 34.2578125 C-107.44410156 33.51144531 -106.91945313 32.76507813 -106.37890625 31.99609375 C-105.88261719 31.28066406 -105.38632813 30.56523437 -104.875 29.828125 C-104.18374023 28.8383667 -104.18374023 28.8383667 -103.47851562 27.82861328 C-102.29821044 26.17535303 -102.29821044 26.17535303 -102.46875 24.1328125 C-106.42875 24.1328125 -110.38875 24.1328125 -114.46875 24.1328125 Z M-32.46875 27.1328125 C-33.66183162 30.79159612 -33.79542744 32.43278942 -32.15625 35.9453125 C-30.65296412 38.22196876 -30.65296412 38.22196876 -28.46875 39.1328125 C-25.05303147 39.63312456 -25.05303147 39.63312456 -21.46875 39.1328125 C-18.79036427 37.20155148 -18.79036427 37.20155148 -17.46875 34.1328125 C-17.46875 30.3190374 -17.61889929 28.10856702 -20.15625 25.1953125 C-24.79087185 23.06589165 -28.97665315 23.25270489 -32.46875 27.1328125 Z M9.53125 24.1328125 C9.53125 28.7528125 9.53125 33.3728125 9.53125 38.1328125 C10.85125 38.1328125 12.17125 38.1328125 13.53125 38.1328125 C13.53125 33.5128125 13.53125 28.8928125 13.53125 24.1328125 C12.21125 24.1328125 10.89125 24.1328125 9.53125 24.1328125 Z M51.53125 31.1328125 C51.53125 32.1228125 51.53125 33.1128125 51.53125 34.1328125 C42.95125 34.1328125 34.37125 34.1328125 25.53125 34.1328125 C27.85376426 39.01776775 27.85376426 39.01776775 30.53125 40.1328125 C34.87876696 40.57778384 34.87876696 40.57778384 38.53125 38.5078125 C39.19125 38.0540625 39.85125 37.6003125 40.53125 37.1328125 C43.53125 37.8828125 43.53125 37.8828125 46.53125 39.1328125 C47.86036682 39.48258008 49.19207739 39.82377267 50.53125 40.1328125 C50.86125 39.4728125 51.19125 38.8128125 51.53125 38.1328125 C52.30210937 38.36097656 53.07296875 38.58914062 53.8671875 38.82421875 C54.87007812 39.11167969 55.87296875 39.39914063 56.90625 39.6953125 C58.40285156 40.13037109 58.40285156 40.13037109 59.9296875 40.57421875 C62.4989664 41.40937732 62.4989664 41.40937732 64.53125 40.1328125 C64.53125 39.1428125 64.53125 38.1528125 64.53125 37.1328125 C60.24125 35.1528125 55.95125 33.1728125 51.53125 31.1328125 Z " fill="#F0F0F0" transform="translate(295.46875,213.8671875)"/>
<path d="M0 0 C2.53678663 1.44269684 4.59985928 3.11548428 6.66015625 5.17578125 C6.99015625 3.52578125 7.32015625 1.87578125 7.66015625 0.17578125 C7.99015625 0.17578125 8.32015625 0.17578125 8.66015625 0.17578125 C8.66015625 3.14578125 8.66015625 6.11578125 8.66015625 9.17578125 C12.95015625 9.17578125 17.24015625 9.17578125 21.66015625 9.17578125 C21.33015625 9.83578125 21.00015625 10.49578125 20.66015625 11.17578125 C17.03015625 11.17578125 13.40015625 11.17578125 9.66015625 11.17578125 C9.66015625 14.14578125 9.66015625 17.11578125 9.66015625 20.17578125 C1.41015625 20.17578125 -6.83984375 20.17578125 -15.33984375 20.17578125 C-15.00984375 21.49578125 -14.67984375 22.81578125 -14.33984375 24.17578125 C-12.75971158 24.42606936 -11.17542069 24.65019071 -9.58984375 24.86328125 C-8.26726562 25.05470703 -8.26726562 25.05470703 -6.91796875 25.25 C-3.75280484 25.15888165 -2.75831828 24.10649621 -0.33984375 22.17578125 C4.18480975 23.02415378 6.67293812 24.7289911 9.66015625 28.17578125 C5.37175888 32.84256663 1.65081336 35.8291369 -4.77734375 36.57421875 C-5.95296875 36.56648438 -7.12859375 36.55875 -8.33984375 36.55078125 C-9.51546875 36.55851562 -10.69109375 36.56625 -11.90234375 36.57421875 C-18.37112646 35.82442803 -22.15522448 32.92412805 -26.078125 27.9921875 C-29.39918704 23.211092 -29.69198644 18.94448288 -28.875 13.34765625 C-27.38829827 7.31403462 -23.10756659 3.72621315 -18.33984375 0.17578125 C-12.72663239 -1.6952892 -5.6223055 -1.98047823 0 0 Z M-14.33984375 9.17578125 C-14.66984375 10.16578125 -14.99984375 11.15578125 -15.33984375 12.17578125 C-11.37984375 12.17578125 -7.41984375 12.17578125 -3.33984375 12.17578125 C-4.82909794 8.0561471 -4.82909794 8.0561471 -7.71484375 7.30078125 C-10.65813957 7.16062431 -11.95477424 7.47216017 -14.33984375 9.17578125 Z " fill="#E5E5E5" transform="translate(172.33984375,227.82421875)"/>
<path d="M0 0 C1.18722656 0.00386719 2.37445313 0.00773438 3.59765625 0.01171875 C6.79354527 0.29953566 9.05738582 0.94594299 11.9375 2.3125 C10.87874926 5.71562738 9.92847846 8.32603231 7.9375 11.3125 C4.3075 10.6525 0.6775 9.9925 -3.0625 9.3125 C-3.0625 10.3025 -3.0625 11.2925 -3.0625 12.3125 C-2.06669922 12.55033203 -2.06669922 12.55033203 -1.05078125 12.79296875 C4.49970616 14.25959389 8.40588185 15.48595519 11.9375 20.3125 C11.9375 21.6325 11.9375 22.9525 11.9375 24.3125 C12.989375 23.57 12.989375 23.57 14.0625 22.8125 C17.41071887 21.0656032 19.2133163 20.75783434 22.9375 21.3125 C26.15733624 23.48806503 26.84807891 25.00511502 27.9375 28.75 C27.9375 32.3125 27.9375 32.3125 26.5 35.25 C23.60075382 37.58353961 21.62752175 38.0287629 17.91015625 37.8203125 C14.64665936 36.98020439 12.98132557 34.86728196 10.9375 32.3125 C10.15375 32.951875 9.37 33.59125 8.5625 34.25 C4.39840817 37.52178644 1.98102277 37.50022326 -3.3125 37.5625 C-4.61703125 37.58828125 -5.9215625 37.6140625 -7.265625 37.640625 C-11.2746967 37.29416201 -13.66075728 36.41418093 -17.0625 34.3125 C-18.1875 32.5 -18.1875 32.5 -18.0625 30.3125 C-16.125 27.0625 -16.125 27.0625 -14.0625 24.3125 C-13.29164063 24.5290625 -12.52078125 24.745625 -11.7265625 24.96875 C-10.72367187 25.2471875 -9.72078125 25.525625 -8.6875 25.8125 C-7.68976563 26.0909375 -6.69203125 26.369375 -5.6640625 26.65625 C-3.18646724 27.39403015 -3.18646724 27.39403015 -1.0625 27.3125 C-1.0625 26.3225 -1.0625 25.3325 -1.0625 24.3125 C-1.98482422 24.02246094 -1.98482422 24.02246094 -2.92578125 23.7265625 C-3.73402344 23.46617187 -4.54226563 23.20578125 -5.375 22.9375 C-6.17550781 22.68226563 -6.97601563 22.42703125 -7.80078125 22.1640625 C-10.0625 21.3125 -10.0625 21.3125 -13.0625 19.3125 C-13.3925 19.9725 -13.7225 20.6325 -14.0625 21.3125 C-22.6425 21.3125 -31.2225 21.3125 -40.0625 21.3125 C-40.0625 20.9825 -40.0625 20.6525 -40.0625 20.3125 C-31.8125 20.3125 -23.5625 20.3125 -15.0625 20.3125 C-14.7325 18.3325 -14.4025 16.3525 -14.0625 14.3125 C-14.7225 14.3125 -15.3825 14.3125 -16.0625 14.3125 C-16.3925 12.3325 -16.7225 10.3525 -17.0625 8.3125 C-16.4025 8.3125 -15.7425 8.3125 -15.0625 8.3125 C-14.753125 7.1678125 -14.753125 7.1678125 -14.4375 6 C-11.51405495 0.28599376 -5.89882964 -0.08344373 0 0 Z " fill="#E5E5E5" transform="translate(361.0625,226.6875)"/>
<path d="M0 0 C3.23861303 1.44424635 5.61969163 3.25772247 8.25 5.625 C8.95640625 6.25664062 9.6628125 6.88828125 10.390625 7.5390625 C10.92171875 8.02117187 11.4528125 8.50328125 12 9 C3.78411754 18.81341516 -4.97240605 28.14376411 -14.13671875 37.07421875 C-16.05941282 38.86837689 -16.05941282 38.86837689 -17 41 C-20.96 41 -24.92 41 -29 41 C-30.52707368 32.18995956 -30.52707368 32.18995956 -27.83691406 28.33203125 C-24.67454376 24.76422886 -21.12255351 21.60725893 -17.56787109 18.43798828 C-15.63514402 16.66536877 -13.93229224 14.75995961 -12.25 12.75 C-8.4266861 8.24291964 -4.21942503 4.13331432 0 0 Z " fill="#EBEBEB" transform="translate(133,224)"/>
<path d="M0 0 C3.95813153 1.52927809 6.68940371 4.17830695 9.75 7.0625 C9.2706753 11.37642226 8.0042015 13.22819547 4.75 16.0625 C1.51138697 14.61825365 -0.86969163 12.80477753 -3.5 10.4375 C-4.20640625 9.80585938 -4.9128125 9.17421875 -5.640625 8.5234375 C-6.17171875 8.04132813 -6.7028125 7.55921875 -7.25 7.0625 C-3.86604384 0.10739011 -3.86604384 0.10739011 0 0 Z " fill="#DADADA" transform="translate(143.25,214.9375)"/>
<path d="M0 0 C-1.19126781 2.38253561 -2.38694426 3.12188876 -4.5625 4.625 C-5.20316406 5.07101563 -5.84382813 5.51703125 -6.50390625 5.9765625 C-6.99761719 6.31429687 -7.49132812 6.65203125 -8 7 C-6.4365884 2.43002763 -5.27390657 0 0 0 Z " fill="#B5B5B5" transform="translate(354,228)"/>
</svg>
